<?xml version="1.0" encoding="UTF-8" standalone="no"?>
<!-- Created with Inkscape (http://www.inkscape.org/) -->
<svg
   xmlns:dc="http://purl.org/dc/elements/1.1/"
   xmlns:cc="http://web.resource.org/cc/"
   xmlns:rdf="http://www.w3.org/1999/02/22-rdf-syntax-ns#"
   xmlns:svg="http://www.w3.org/2000/svg"
   xmlns="http://www.w3.org/2000/svg"
   xmlns:sodipodi="http://sodipodi.sourceforge.net/DTD/sodipodi-0.dtd"
   xmlns:inkscape="http://www.inkscape.org/namespaces/inkscape"
   version="1.0"
   width="600"
   height="600"
   id="svg2"

   sodipodi:version="0.32"
   inkscape:version="0.45.1"
   sodipodi:docname="Pi_eq_C_over_d.svg"
   inkscape:output_extension="org.inkscape.output.svg.inkscape"
   sodipodi:docbase="C:\Documents and Settings\YoungAe Han\Desktop">

  <rect width="100%" height="100%" fill="cyan" />
  <metadata
     id="metadata2250">
    <rdf:RDF>
      <cc:Work
         rdf:about="">
        <dc:format>image/svg+xml</dc:format>
        <dc:type
           rdf:resource="http://purl.org/dc/dcmitype/StillImage" />
      </cc:Work>
    </rdf:RDF>
  </metadata>
  <sodipodi:namedview
     inkscape:window-height="968"
     inkscape:window-width="1280"
     inkscape:pageshadow="2"
     inkscape:pageopacity="0.0"
     guidetolerance="10.0"
     gridtolerance="10.0"
     objecttolerance="10.0"
     borderopacity="1.0"
     bordercolor="#666666"
     pagecolor="#ffffff"
     id="base"
     inkscape:zoom="0.31416667"
     inkscape:cx="300"
     inkscape:cy="300"
     inkscape:window-x="-4"
     inkscape:window-y="-4"
     inkscape:current-layer="svg2" />
  <defs
     id="defs4">
    <marker
       refX="0"
       refY="0"
       orient="auto"
       style="overflow:visible"
       id="Arrow2Lend">
      <path
         d="M 8.7185878,4.0337352 L -2.2072895,0.016013256 L 8.7185884,-4.0017078 C 6.97309,-1.6296469 6.9831476,1.6157441 8.7185878,4.0337352 z "
         transform="matrix(-1.1,0,0,-1.1,-1.1,0)"
         style="font-size:12px;fill-rule:evenodd;stroke-width:0.625;stroke-linejoin:round"
         id="path5141" />
    </marker>
    <marker
       refX="0"
       refY="0"
       orient="auto"
       style="overflow:visible"
       id="Arrow1Lend">
      <path
         d="M 0,0 L 5,-5 L -12.5,0 L 5,5 L 0,0 z "
         transform="matrix(-0.8,0,0,-0.8,-10,0)"
         style="fill-rule:evenodd;stroke:#000000;stroke-width:1pt;marker-start:none"
         id="path5123" />
    </marker>
    <marker
       refX="0"
       refY="0"
       orient="auto"
       style="overflow:visible"
       id="Arrow1Mend">
      <path
         d="M 0,0 L 5,-5 L -12.5,0 L 5,5 L 0,0 z "
         transform="matrix(-0.4,0,0,-0.4,-4,0)"
         style="fill-rule:evenodd;stroke:#000000;stroke-width:1pt;marker-start:none"
         id="path5129" />
    </marker>
    <marker
       refX="0"
       refY="0"
       orient="auto"
       style="overflow:visible"
       id="Arrow1Lstart">
      <path
         d="M 0,0 L 5,-5 L -12.5,0 L 5,5 L 0,0 z "
         transform="matrix(0.8,0,0,0.8,10,0)"
         style="fill-rule:evenodd;stroke:#000000;stroke-width:1pt;marker-start:none"
         id="path5120" />
    </marker>
    <marker
       refX="0"
       refY="0"
       orient="auto"
       style="overflow:visible"
       id="Arrow1Mstart">
      <path
         d="M 0,0 L 5,-5 L -12.5,0 L 5,5 L 0,0 z "
         transform="matrix(0.4,0,0,0.4,4,0)"
         style="fill-rule:evenodd;stroke:#000000;stroke-width:1pt;marker-start:none"
         id="path5126" />
    </marker>
  </defs>
  <path
     d="M 255.53125,32.59375 L 261.6875,37.78125 C 139.62342,55.317092 46.882814,152.51506 36,276.90625 C 23.251497,422.62235 131.19016,551.25149 276.90625,564 C 422.62235,576.74853 551.2515,468.84109 564,323.125 C 576.29986,182.53692 476.23654,57.833873 338.3125,37.78125 L 344.46875,32.59375 L 323.03125,36.75 L 343.4375,44.5625 L 339.09375,39.40625 C 475.74451,59.789696 574.70255,183.4928 562.5,322.96875 C 549.82221,467.87634 421.93884,575.17777 277.03125,562.5 C 132.12366,549.82224 24.822235,421.97008 37.5,277.0625 C 48.294891,153.67626 139.99278,57.22545 260.90625,39.40625 L 256.5625,44.5625 L 276.96875,36.75 L 255.53125,32.59375 z "
     style="fill:#0000ff;fill-opacity:1;stroke:none;stroke-width:1.28632045;stroke-miterlimit:4;stroke-dasharray:none;stroke-opacity:1"
     id="path9251" />
  <path
     d="M 550.00001,300 C 550.02321,438.08759 438.08759,550.04201 300,550.04201 C 161.91241,550.04201 49.976792,438.08759 49.999994,300 C 49.976792,161.9124 161.91241,49.957987 300,49.957987 C 438.08759,49.957987 550.02321,161.9124 550.00001,300 L 550.00001,300 z "
     style="fill:none;fill-opacity:1;stroke:#000000;stroke-width:1.49999988;stroke-miterlimit:4;stroke-dasharray:none;stroke-opacity:1"
     id="path2160" />
  <text
     x="281.10086"
     y="43.293758"
     style="font-size:49.2000885px;font-style:italic;font-variant:normal;font-weight:normal;font-stretch:normal;text-align:start;line-height:125%;writing-mode:lr-tb;text-anchor:start;fill:#000000;fill-opacity:1;stroke:none;stroke-width:1px;stroke-linecap:butt;stroke-linejoin:miter;stroke-opacity:1;font-family:DejaVu Serif"
     id="text3138"
     xml:space="preserve"
     sodipodi:linespacing="125%"><tspan
       x="281.10086"
       y="43.293758"
       id="tspan3140">C</tspan></text>
  <text
     x="360.53836"
     y="232.89742"
     style="font-size:40.75402832px;font-style:italic;font-variant:normal;font-weight:normal;font-stretch:normal;text-align:start;line-height:125%;writing-mode:lr-tb;text-anchor:start;fill:#000000;fill-opacity:1;stroke:none;stroke-width:1px;stroke-linecap:butt;stroke-linejoin:miter;stroke-opacity:1;font-family:DejaVu Serif"
     id="text3142"
     xml:space="preserve"
     sodipodi:linespacing="125%"><tspan
       x="360.53836"
       y="232.89742"
       id="tspan3144">d</tspan></text>
  <text
     x="94.748405"
     y="448.13947"
     transform="matrix(0.8660254,-0.5,0.5,0.8660254,0,0)"
     style="font-size:39.00590515px;font-style:normal;font-variant:normal;font-weight:normal;font-stretch:normal;text-align:start;line-height:125%;writing-mode:lr-tb;text-anchor:start;fill:#000000;fill-opacity:1;stroke:none;stroke-width:1px;stroke-linecap:butt;stroke-linejoin:miter;stroke-opacity:1;font-family:DejaVu Serif"
     id="text3146"
     xml:space="preserve"
     sodipodi:linespacing="125%"><tspan
       x="94.748405"
       y="448.13947"
       id="tspan3148">diameter</tspan></text>
  <path
     d="M 21.392207,209.24487 C 23.086527,210.55722 24.143434,212.06195 24.562926,213.75904 C 24.982406,215.45616 24.737934,217.28597 23.82951,219.2485 C 22.632031,221.83548 20.813587,223.51894 18.374175,224.29891 C 15.934762,225.07887 13.29891,224.81332 10.466616,223.5023 C 7.6231873,222.18612 5.7151096,220.34832 4.7423865,217.98892 C 3.7696896,215.62955 3.8820677,213.15636 5.0795282,210.56938 C 5.6008566,209.44317 6.250613,208.38318 7.0287962,207.38937 C 7.8070028,206.39563 8.7243761,205.4595 9.7809151,204.581 L 14.330419,206.6869 L 13.501995,208.4766 C 11.832505,207.98818 10.458988,207.97184 9.3814469,208.42762 C 8.3039208,208.88342 7.4270711,209.84169 6.7509001,211.30241 C 5.9818429,212.96389 6.0451283,214.51643 6.9407501,215.96004 C 7.8363952,217.40365 9.5665486,218.71903 12.131209,219.90617 C 14.695885,221.09334 16.81981,221.56533 18.502991,221.32219 C 20.186172,221.07906 21.414877,220.12119 22.189111,218.44857 C 22.803329,217.12164 22.948,215.9023 22.623126,214.79058 C 22.298247,213.67888 21.505987,212.65546 20.246346,211.72032 L 21.392207,209.24487 z M 6.3392965,195.2254 C 5.8358518,194.96852 5.4915948,194.56181 5.3065306,194.00525 C 5.1215114,193.44874 5.1602302,192.91327 5.4226847,192.39883 C 5.6796023,191.89538 6.0876557,191.55525 6.6468478,191.37846 C 7.2060834,191.2017 7.7374259,191.24177 8.2408733,191.49864 C 8.7553051,191.76114 9.1009573,192.16513 9.2778291,192.71059 C 9.4547367,193.25608 9.4119408,193.78601 9.1494468,194.30042 C 8.8869849,194.81484 8.4816123,195.16324 7.9333215,195.34558 C 7.3850706,195.52795 6.8537315,195.4879 6.3392965,195.2254 L 6.3392965,195.2254 z M 29.437134,202.14848 L 30.894733,199.29184 L 32.634981,200.17981 L 28.161671,208.94672 L 26.42142,208.05875 L 27.895769,205.16929 L 13.940945,198.04885 L 12.466596,200.93832 L 10.709928,200.04198 L 13.725644,194.13169 L 29.437134,202.14848 z M 24.587136,174.06223 L 28.87364,176.44176 L 27.925408,178.14992 C 27.046889,177.73252 26.281843,177.61701 25.630271,177.80338 C 24.978713,177.9898 24.42929,178.48587 23.982002,179.29159 C 23.170944,180.75266 23.054154,182.15293 23.631626,183.49237 C 24.209119,184.83185 25.443254,186.0264 27.334034,187.07599 L 35.165768,191.42355 L 37.071176,187.99113 L 38.779334,188.93936 L 33.742969,198.01192 L 32.034811,197.06368 L 33.519781,194.38866 L 19.790076,186.76702 L 18.215654,189.60321 L 16.523613,188.66392 L 19.744022,182.86263 L 22.789696,184.55334 C 21.919261,183.31125 21.450121,182.0741 21.382267,180.84184 C 21.31444,179.60965 21.644305,178.33821 22.371869,177.02753 C 22.640246,176.54411 22.959634,176.05738 23.33003,175.56731 C 23.700445,175.07729 24.11948,174.57561 24.587136,174.06223 L 24.587136,174.06223 z M 46.908978,163.94584 C 48.435611,165.44998 49.3065,167.06947 49.521656,168.80436 C 49.736793,170.53926 49.276926,172.32714 48.142052,174.16801 C 46.646066,176.59461 44.640711,178.05042 42.125985,178.53541 C 39.611255,179.0204 37.025535,178.44397 34.368815,176.80613 C 31.701649,175.16185 30.025126,173.11065 29.339234,170.65249 C 28.653367,168.19436 29.058417,165.752 30.554387,163.32537 C 31.205665,162.26898 31.976607,161.29357 32.867215,160.39913 C 33.75784,159.50472 34.77981,158.68408 35.93313,157.93717 L 40.200608,160.56802 L 39.165671,162.24676 C 37.565935,161.56369 36.204062,161.38451 35.080049,161.70919 C 33.956049,162.03392 32.971689,162.88137 32.126969,164.25156 C 31.166198,165.81004 31.044811,167.35911 31.762809,168.89877 C 32.480832,170.4385 34.042677,171.94987 36.448359,173.43296 C 38.854047,174.91603 40.906961,175.63673 42.607103,175.59502 C 44.307241,175.55332 45.640926,174.74801 46.60816,173.17907 C 47.37549,171.93441 47.663823,170.74087 47.473161,169.59843 C 47.282487,168.45604 46.617261,167.34583 45.477481,166.26787 L 46.908978,163.94584 z M 44.300341,143.37318 L 47.910029,138.16073 L 62.41094,148.2028 L 64.236769,145.56627 L 65.842938,146.67856 L 62.086334,152.10314 L 59.237676,150.13041 C 59.951667,151.38714 60.305674,152.61873 60.299685,153.82521 C 60.293682,155.03169 59.916425,156.17537 59.167908,157.25624 C 57.929695,159.04424 56.510921,160.00846 54.911583,160.14889 C 53.31224,160.28932 51.426644,159.60752 49.254789,158.10347 L 40.633037,152.1328 L 38.891153,154.64811 L 37.269836,153.52532 L 40.95298,148.20681 L 50.332358,154.70216 C 52.292075,156.05929 53.801738,156.74978 54.861345,156.77363 C 55.920949,156.79749 56.877474,156.1932 57.73093,154.96081 C 58.626353,153.6678 58.833636,152.35411 58.352793,151.01971 C 57.871938,149.68534 56.727403,148.39203 54.919219,147.13983 L 47.600579,142.07156 L 45.921654,144.49596 L 44.300341,143.37318 z M 66.430811,120.25376 C 65.717212,118.84607 65.392576,117.51811 65.456886,116.2699 C 65.521188,115.02173 65.976337,113.87057 66.822334,112.81642 C 68.106691,111.21611 69.560111,110.42104 71.182593,110.43121 C 72.805053,110.44143 74.61771,111.25023 76.620546,112.85757 L 84.813927,119.4332 L 86.72895,117.04707 L 88.252631,118.2699 L 82.369162,125.60083 L 80.845481,124.37799 L 82.691277,122.07809 L 74.799743,115.74471 C 73.23773,114.49114 71.941526,113.829 70.911158,113.75829 C 69.880769,113.68763 68.938751,114.18413 68.085075,115.24781 C 67.139107,116.42654 66.863699,117.68256 67.25884,119.01587 C 67.654004,120.34923 68.704455,121.70039 70.41021,123.06933 L 77.396154,128.67592 L 79.24195,126.37602 L 80.765633,127.59886 L 74.951389,134.84354 L 73.427709,133.6207 L 75.273488,131.32081 L 67.281344,124.90668 C 65.757666,123.68386 64.487819,123.04286 63.47182,122.98369 C 62.455812,122.92457 61.520978,123.42684 60.667285,124.49052 C 59.72133,125.66924 59.445925,126.92525 59.841069,128.25859 C 60.23623,129.59194 61.286681,130.94309 62.992436,132.31204 L 69.978381,137.91863 L 71.824162,135.61874 L 73.34786,136.84157 L 67.464391,144.1725 L 65.940709,142.94966 L 67.855716,140.56353 L 55.608757,130.73467 L 53.578386,133.26456 L 52.069077,132.05326 L 56.222109,126.87849 L 58.938861,129.05884 C 58.315322,127.7549 58.038998,126.50905 58.109931,125.3213 C 58.180857,124.13359 58.600871,123.06058 59.369939,122.10226 C 60.323604,120.914 61.414276,120.15867 62.641957,119.83625 C 63.869644,119.51387 65.132596,119.65304 66.430811,120.25376 L 66.430811,120.25376 z M 82.211052,89.463903 L 81.012373,90.79034 C 80.320403,90.181607 79.625709,89.90574 78.928261,89.962747 C 78.230836,90.019807 77.556702,90.408423 76.905858,91.128593 C 76.057314,92.06761 75.717574,92.961281 75.886621,93.809621 C 76.055692,94.658002 76.801165,95.679467 78.123043,96.874017 L 79.996459,98.567015 L 83.666675,94.505641 L 85.129858,95.827901 L 81.459658,99.889266 L 93.083089,110.39324 L 95.999496,107.16603 L 97.449,108.47595 L 90.083865,116.62602 L 88.634344,115.31611 L 90.809289,112.90938 L 79.185843,102.40541 L 77.010913,104.81215 L 75.547729,103.48988 L 77.722659,101.08314 L 75.903941,99.439581 C 74.28123,97.973161 73.436092,96.443464 73.368538,94.850473 C 73.301011,93.257532 74.004581,91.645133 75.479247,90.013268 C 76.031221,89.402497 76.63789,88.84113 77.299254,88.32916 C 77.960642,87.81725 78.67714,87.363419 79.44878,86.967665 L 82.211052,89.463903 z M 106.1255,85.982404 L 95.872181,96.398415 L 95.977256,96.501862 C 97.859938,98.355133 99.629802,99.399063 101.28686,99.633643 C 102.94392,99.868232 104.45341,99.293759 105.81537,97.910196 C 106.85836,96.850663 107.43584,95.707881 107.54785,94.481874 C 107.65984,93.255886 107.30214,91.968425 106.47479,90.619467 L 108.38841,88.675493 C 109.54153,90.569278 109.99267,92.414268 109.74181,94.210454 C 109.49093,96.00667 108.53368,97.749794 106.87005,99.439806 C 104.86161,101.48011 102.57548,102.45822 100.01163,102.37413 C 97.447779,102.29005 95.053763,101.15329 92.829578,98.963837 C 90.622913,96.791649 89.444405,94.433229 89.294023,91.888586 C 89.143678,89.343975 90.042533,87.082164 91.99062,85.103143 C 94.068011,82.992818 96.312867,82.012866 98.725171,82.163287 C 101.1375,82.313754 103.60428,83.586791 106.1255,85.982404 L 106.1255,85.982404 z M 101.92744,87.462131 C 100.24698,85.911399 98.680533,85.046163 97.228099,84.866419 C 95.775655,84.686721 94.463285,85.192311 93.290985,86.383192 C 92.196259,87.495306 91.750211,88.78041 91.952844,90.238512 C 92.155482,91.696649 92.997823,93.293098 94.479882,95.027864 L 101.92744,87.462131 z M 114.13986,64.634076 L 117.46694,68.235024 L 116.03198,69.56085 C 115.32811,68.889596 114.63759,68.540574 113.96041,68.513782 C 113.28323,68.487037 112.6062,68.786347 111.92934,69.411714 C 110.70195,70.545776 110.15301,71.83924 110.28252,73.292107 C 110.41205,74.745009 111.21058,76.265647 112.67817,77.85402 L 118.75696,84.433194 L 121.64043,81.769031 L 122.96626,83.203995 L 115.3447,90.24589 L 114.01887,88.810927 L 116.26608,86.734629 L 105.60943,75.200769 L 103.22685,77.402143 L 101.91353,75.980716 L 106.78699,71.477906 L 109.15098,74.036473 C 108.71275,72.584445 108.65413,71.262615 108.97514,70.070986 C 109.29615,68.8794 110.00718,67.774946 111.1082,66.757622 C 111.51433,66.38241 111.96995,66.020003 112.47504,65.670396 C 112.98015,65.320838 113.53508,64.975399 114.13986,64.634076 L 114.13986,64.634076 z M 137.04062,58.614763 L 125.84858,68.014871 L 125.94343,68.127778 C 127.64247,70.150731 129.30572,71.357292 130.9332,71.747464 C 132.56065,72.137655 134.11769,71.708441 135.60433,70.459827 C 136.74281,69.503624 137.42576,68.420559 137.65315,67.210627 C 137.88053,66.000716 137.64616,64.685202 136.95001,63.264079 L 139.03882,61.509708 C 140.00777,63.504017 140.28246,65.383388 139.86294,67.147824 C 139.44338,68.912282 138.32565,70.557103 136.50971,72.082292 C 134.3174,73.923597 131.94903,74.681207 129.40462,74.355129 C 126.86019,74.029063 124.58435,72.671081 122.5771,70.281178 C 120.58567,67.91011 119.63537,65.450851 119.72621,62.903391 C 119.81709,60.355958 120.92574,58.189246 123.05216,56.403246 C 125.31975,54.49875 127.64718,53.735395 130.03448,54.113181 C 132.42177,54.491016 134.75714,55.991542 137.04062,58.614763 L 137.04062,58.614763 z M 132.72149,59.691012 C 131.19515,57.988368 129.71751,56.978928 128.28857,56.66269 C 126.85963,56.346492 125.50534,56.725758 124.2257,57.800486 C 123.03075,58.804135 122.46523,60.041317 122.52912,61.512044 C 122.59301,62.982806 123.28065,64.651735 124.59208,66.518833 L 132.72149,59.691012 z M 145.77534,63.677631 L 144.60218,62.115371 L 147.04874,60.278175 L 137.64142,47.750602 L 135.04748,49.69847 L 133.86327,48.121469 L 139.16907,44.137192 L 141.26081,46.922735 C 140.96506,45.485302 141.01466,44.19571 141.40965,43.053952 C 141.80461,41.912241 142.53268,40.942947 143.59384,40.146068 C 145.32314,38.847514 146.96816,38.388215 148.52889,38.768171 C 150.08961,39.148178 151.65944,40.389503 153.2384,42.492146 L 159.54685,50.892988 L 161.96392,49.077931 L 163.13709,50.640189 L 155.65,56.262449 L 154.47686,54.700187 L 156.82025,52.940464 L 151.15372,45.394444 C 149.71497,43.478481 148.4923,42.341394 147.48574,41.983181 C 146.47918,41.625009 145.38147,41.892298 144.19258,42.785047 C 142.93491,43.72949 142.32187,44.908217 142.35342,46.321231 C 142.38498,47.734282 143.06111,49.320185 144.38183,51.078941 L 149.7606,58.241766 L 152.11873,56.470976 L 153.29187,58.033239 L 145.77534,63.677631 z M 176.8591,34.332174 C 177.62527,36.333675 177.74683,38.168467 177.22379,39.836557 C 176.70074,41.504667 175.54139,42.941298 173.74575,44.146457 C 171.37874,45.735089 168.95043,46.229105 166.46078,45.628512 C 163.97111,45.027929 161.85665,43.431911 160.11739,40.840457 C 158.37127,38.238818 157.69537,35.677302 158.08968,33.155897 C 158.48398,30.634528 159.86464,28.579524 162.23164,26.990873 C 163.26209,26.299297 164.3679,25.731002 165.54908,25.285984 C 166.73025,24.841018 168.0004,24.51758 169.35954,24.315679 L 172.15333,28.478318 L 170.51581,29.577345 C 169.34291,28.292809 168.1777,27.565426 167.02017,27.39519 C 165.86266,27.224998 164.61562,27.588407 163.27909,28.48541 C 161.75891,29.505712 161.00658,30.865255 161.02206,32.564043 C 161.03758,34.262862 161.83279,36.285557 163.40772,38.632128 C 164.98265,40.978723 166.5524,42.48527 168.11701,43.151768 C 169.68162,43.818281 171.22911,43.637971 172.7595,42.610835 C 173.97358,41.795991 174.73056,40.829195 175.0304,39.710455 C 175.33024,38.591733 175.18481,37.305691 174.59413,35.852325 L 176.8591,34.332174 z M 194.27105,19.603972 L 181.73904,27.125474 L 181.81494,27.251898 C 183.17442,29.517044 184.62706,30.970338 186.17283,31.611789 C 187.71859,32.253252 189.32378,32.074444 190.98841,31.075362 C 192.26319,30.310257 193.10807,29.348175 193.52307,28.18911 C 193.93803,27.030064 193.91361,25.694056 193.44983,24.181083 L 195.78872,22.777322 C 196.4317,24.899275 196.40719,26.798457 195.71521,28.474873 C 195.02317,30.151313 193.66049,31.59972 191.62714,32.8201 C 189.17237,34.29342 186.71428,34.668846 184.25289,33.946381 C 181.7915,33.223923 179.75776,31.524681 178.15164,28.848654 C 176.5582,26.193715 176.00679,23.615543 176.49744,21.114127 C 176.98811,18.612745 178.42395,16.64752 180.80497,15.218445 C 183.34403,13.694567 185.76259,13.307031 188.0607,14.05583 C 190.35875,14.804681 192.42888,16.654058 194.27105,19.603972 L 194.27105,19.603972 z M 189.83635,19.987041 C 188.597,18.065394 187.29664,16.835977 185.93528,16.298784 C 184.5739,15.761635 183.1768,15.923031 181.74397,16.78297 C 180.40596,17.586043 179.65277,18.718803 179.48438,20.181253 C 179.316,21.643741 179.73242,23.400099 180.73364,25.450327 L 189.83635,19.987041 z "
     style="font-size:24px;font-style:normal;font-variant:normal;font-weight:normal;font-stretch:normal;text-align:start;line-height:125%;writing-mode:lr-tb;text-anchor:start;fill:#000000;fill-opacity:1;stroke:none;stroke-width:1px;stroke-linecap:butt;stroke-linejoin:miter;stroke-opacity:1;font-family:DejaVu Serif"
     id="text3150" />
  <path
     d="M -243,158 L -41,158"
     style="color:#000000;fill:#000000;fill-opacity:1;fill-rule:nonzero;stroke:none;stroke-width:1;stroke-linecap:butt;stroke-linejoin:miter;marker:none;marker-start:none;marker-mid:none;marker-end:none;stroke-miterlimit:4;stroke-dasharray:none;stroke-dashoffset:0;stroke-opacity:1;visibility:visible;display:inline;overflow:visible;enable-background:accumulate"
     id="path12180" />
  <path
     d="M -274,256 C -274,255.66667 -274,255.33333 -274,256 z "
     style="fill:none;fill-rule:evenodd;stroke:#000000;stroke-width:1px;stroke-linecap:butt;stroke-linejoin:miter;stroke-opacity:1"
     id="path12184" />
  <path
     d="M 306.76758,294.63281 L 301.41211,300.01171 L 306.76758,305.36718 L 305.37304,306.78515 L 299.99414,301.40624 L 294.61523,306.78515 L 293.23242,305.36718 L 298.57617,300.01171 L 293.23242,294.63281 L 294.61523,293.21484 L 299.99414,298.59374 L 305.37304,293.21484 L 306.76758,294.63281 z "
     style="font-size:24px;font-style:normal;font-variant:normal;font-weight:normal;font-stretch:normal;text-align:start;line-height:125%;writing-mode:lr-tb;text-anchor:start;fill:#000000;fill-opacity:1;stroke:none;stroke-width:1px;stroke-linecap:butt;stroke-linejoin:miter;stroke-opacity:1;font-family:DejaVu Sans"
     id="text14163" />
  <path
     d="M 99.816838,408.64759 L 84.630305,424.34375 L 105.81684,419.03991 L 98.645202,417.11827 C 123.38817,402.83291 477.36183,198.46613 502.1048,184.18077 L 500.18316,191.35241 L 515.3697,175.65625 L 494.18316,180.96009 L 501.3548,182.88173 C 476.61183,197.16709 122.63817,401.53387 97.895202,415.81923 L 99.816838,408.64759 z "
     style="fill:#0000ff;fill-opacity:1;fill-rule:evenodd;stroke:none;stroke-width:1.5;stroke-linecap:butt;stroke-linejoin:miter;stroke-miterlimit:4;stroke-dasharray:none;stroke-opacity:1"
     id="path12186" />
</svg>
